<svg width="80" height="80" viewBox="0 0 80 80" fill="none" xmlns="http://www.w3.org/2000/svg">
<g filter="url(#filter0_bd)">
<rect x="20" y="16" width="40" height="40" rx="20" fill="white" fill-opacity="0.5"/>
<path fill-rule="evenodd" clip-rule="evenodd" d="M33.1213 42.8492C32.7308 42.4587 32.7308 41.8255 33.1213 41.435L45.8492 28.7071C46.2397 28.3165 46.8729 28.3165 47.2634 28.7071C47.654 29.0976 47.654 29.7308 47.2634 30.1213L34.5355 42.8492C34.145 43.2397 33.5118 43.2397 33.1213 42.8492Z" fill="#4754EB"/>
<path fill-rule="evenodd" clip-rule="evenodd" d="M32.7071 28.8492C33.0976 28.4587 33.7308 28.4587 34.1213 28.8492L46.8492 41.5771C47.2397 41.9676 47.2397 42.6008 46.8492 42.9913C46.4587 43.3819 45.8255 43.3819 45.435 42.9913L32.7071 30.2634C32.3166 29.8729 32.3166 29.2397 32.7071 28.8492Z" fill="#4754EB"/>
<rect x="20.5" y="16.5" width="39" height="39" rx="19.5" stroke="url(#paint0_linear)"/>
</g>
<defs>
<filter id="filter0_bd" x="-4" y="-8" width="88" height="88" filterUnits="userSpaceOnUse" color-interpolation-filters="sRGB">
<feFlood flood-opacity="0" result="BackgroundImageFix"/>
<feGaussianBlur in="BackgroundImage" stdDeviation="12"/>
<feComposite in2="SourceAlpha" operator="in" result="effect1_backgroundBlur"/>
<feColorMatrix in="SourceAlpha" type="matrix" values="0 0 0 0 0 0 0 0 0 0 0 0 0 0 0 0 0 0 127 0"/>
<feOffset dy="4"/>
<feGaussianBlur stdDeviation="10"/>
<feColorMatrix type="matrix" values="0 0 0 0 0.0980392 0 0 0 0 0.0980392 0 0 0 0 0.0980392 0 0 0 0.05 0"/>
<feBlend mode="normal" in2="effect1_backgroundBlur" result="effect2_dropShadow"/>
<feBlend mode="normal" in="SourceGraphic" in2="effect2_dropShadow" result="shape"/>
</filter>
<linearGradient id="paint0_linear" x1="60" y1="16" x2="20" y2="56" gradientUnits="userSpaceOnUse">
<stop stop-color="white" stop-opacity="0.75"/>
<stop offset="1" stop-color="white" stop-opacity="0"/>
</linearGradient>
</defs>
</svg>
