<svg width="72" height="72" viewBox="0 0 72 72" fill="none" xmlns="http://www.w3.org/2000/svg">
<g filter="url(#filter0_bd)">
<rect x="20" y="16" width="32" height="32" rx="16" fill="white" fill-opacity="0.5"/>
<path fill-rule="evenodd" clip-rule="evenodd" d="M30.2929 26.2929C30.6834 25.9024 31.3166 25.9024 31.7071 26.2929L41.6066 36.1924C41.9971 36.5829 41.9971 37.2161 41.6066 37.6066C41.2161 37.9971 40.5829 37.9971 40.1924 37.6066L30.2929 27.7071C29.9024 27.3166 29.9024 26.6834 30.2929 26.2929Z" fill="#4754EB"/>
<path fill-rule="evenodd" clip-rule="evenodd" d="M41.7071 26.2929C41.3166 25.9024 40.6834 25.9024 40.2929 26.2929L30.3934 36.1924C30.0029 36.5829 30.0029 37.2161 30.3934 37.6066C30.7839 37.9971 31.4171 37.9971 31.8076 37.6066L41.7071 27.7071C42.0976 27.3166 42.0976 26.6834 41.7071 26.2929Z" fill="#4754EB"/>
<rect x="20.5" y="16.5" width="31" height="31" rx="15.5" stroke="url(#paint0_linear)"/>
</g>
<defs>
<filter id="filter0_bd" x="-4" y="-8" width="80" height="80" filterUnits="userSpaceOnUse" color-interpolation-filters="sRGB">
<feFlood flood-opacity="0" result="BackgroundImageFix"/>
<feGaussianBlur in="BackgroundImage" stdDeviation="12"/>
<feComposite in2="SourceAlpha" operator="in" result="effect1_backgroundBlur"/>
<feColorMatrix in="SourceAlpha" type="matrix" values="0 0 0 0 0 0 0 0 0 0 0 0 0 0 0 0 0 0 127 0"/>
<feOffset dy="4"/>
<feGaussianBlur stdDeviation="10"/>
<feColorMatrix type="matrix" values="0 0 0 0 0.0980392 0 0 0 0 0.0980392 0 0 0 0 0.0980392 0 0 0 0.05 0"/>
<feBlend mode="normal" in2="effect1_backgroundBlur" result="effect2_dropShadow"/>
<feBlend mode="normal" in="SourceGraphic" in2="effect2_dropShadow" result="shape"/>
</filter>
<linearGradient id="paint0_linear" x1="52" y1="16" x2="20" y2="48" gradientUnits="userSpaceOnUse">
<stop stop-color="white" stop-opacity="0.75"/>
<stop offset="1" stop-color="white" stop-opacity="0"/>
</linearGradient>
</defs>
</svg>
